<?xml version="1.0" standalone="no"?>
<!DOCTYPE svg PUBLIC "-//W3C//DTD SVG 20010904//EN"
 "http://www.w3.org/TR/2001/REC-SVG-20010904/DTD/svg10.dtd">
<svg version="1.0" xmlns="http://www.w3.org/2000/svg"
 width="895.000000pt" height="895.000000pt" viewBox="0 0 895.000000 895.000000"
 preserveAspectRatio="xMidYMid meet">
<metadata>
Created by potrace 1.11, written by Peter Selinger 2001-2013
</metadata>
<g transform="translate(0.000000,895.000000) scale(0.100000,-0.100000)"
fill="#000000" stroke="none">
<path d="M4238 8945 c-2 -2 -50 -6 -108 -9 -58 -4 -114 -9 -125 -11 -11 -3
-42 -7 -70 -10 -77 -7 -135 -15 -190 -25 -65 -12 -102 -19 -145 -26 -88 -15
-401 -98 -524 -139 -353 -117 -688 -275 -991 -469 -192 -122 -380 -260 -506
-371 -251 -220 -362 -334 -583 -595 -11 -14 -34 -43 -50 -65 -17 -22 -33 -42
-36 -45 -10 -8 -140 -195 -195 -280 -116 -178 -246 -419 -342 -635 -97 -217
-230 -621 -258 -784 -3 -19 -7 -37 -9 -40 -6 -10 -54 -280 -66 -376 -6 -49
-13 -101 -15 -115 -26 -185 -26 -781 0 -955 8 -52 15 -105 21 -153 5 -50 6
-55 23 -147 6 -33 14 -73 17 -90 3 -16 10 -50 15 -75 6 -25 13 -56 15 -70 27
-140 144 -509 205 -647 11 -23 19 -45 19 -49 0 -10 85 -195 128 -279 19 -38
44 -88 55 -110 49 -100 210 -360 301 -487 25 -35 54 -74 63 -87 10 -14 61 -79
114 -146 502 -630 1227 -1141 1999 -1410 143 -49 507 -147 615 -165 33 -5 69
-12 80 -14 11 -2 45 -7 75 -11 30 -4 63 -9 72 -10 9 -2 44 -6 77 -10 33 -3 69
-8 81 -10 134 -26 819 -25 955 1 11 2 43 6 70 9 28 3 77 10 110 15 33 5 78 12
100 15 147 23 574 129 626 156 9 4 27 10 40 13 54 10 455 174 529 216 14 8 27
15 30 15 29 5 313 168 469 269 103 67 329 232 351 257 3 3 14 12 26 20 103 71
401 361 549 534 33 39 62 72 65 75 12 11 148 188 196 255 241 334 458 755 592
1150 56 166 121 399 147 530 22 110 55 311 60 370 4 39 9 79 11 89 25 133 24
768 -1 936 -6 39 -14 100 -20 160 -3 30 -8 62 -10 70 -2 8 -7 31 -10 50 -14
87 -36 196 -55 272 -11 46 -22 92 -25 103 -27 127 -142 459 -226 655 -41 95
-166 344 -225 446 -52 91 -211 338 -241 374 -6 8 -32 42 -57 75 -63 85 -128
169 -135 175 -3 3 -31 34 -61 70 -30 36 -75 86 -100 112 -25 25 -68 70 -96
100 -61 64 -167 163 -253 238 -35 30 -69 60 -75 65 -6 6 -31 26 -56 45 -25 19
-47 37 -50 41 -3 3 -54 42 -115 86 -253 183 -506 333 -780 458 -80 37 -319
135 -339 140 -6 1 -18 5 -26 8 -71 27 -310 102 -360 112 -8 2 -33 8 -55 14
-22 5 -55 13 -74 16 -19 3 -37 7 -40 9 -3 2 -23 7 -43 10 -21 3 -59 11 -84 16
-55 12 -54 12 -249 39 -83 11 -184 23 -225 27 -73 6 -597 14 -602 9z"/>
</g>
</svg>
